<svg xmlns="http://www.w3.org/2000/svg" width="900" height="900" viewBox="0 0 900 900" version="1.1">
	<rect x="0" y="0" width="900" height="900" fill="#0000ff" />
	<path d="M 112.557 188.223 L 111 190.445 111 315.247 L 111 440.050 113.737 441.090 L 116.475 442.131 132.320 441.816 L 148.165 441.500 149.556 439.596 L 150.946 437.692 150.506 369.119 L 150.067 300.547 151.557 298.273 L 153.046 296 183.488 296 L 213.930 296 214.965 297.934 L 216 299.869 216 369.899 L 216 439.930 218.092 441.049 L 220.184 442.169 236.441 441.834 L 252.697 441.500 254.349 440.128 L 256 438.755 255.985 364.628 L 255.969 290.500 255.023 289 L 254.077 287.500 239.985 287.173 L 225.892 286.847 224.946 284.358 L 224 281.870 224 279.218 L 224 276.567 222.321 272.033 L 220.642 267.500 218.663 264.623 L 216.684 261.747 210.592 258.917 L 204.500 256.088 179.231 255.390 L 153.963 254.693 152.231 253.427 L 150.500 252.161 150.330 221.831 L 150.161 191.500 150.080 190.321 L 150 189.143 148.429 187.571 L 146.857 186 130.485 186 L 114.113 186 112.557 188.223  M 641.656 187.827 L 640.002 189.655 639.965 314.491 L 639.927 439.327 641.012 440.414 L 642.098 441.500 659.406 441.821 L 676.714 442.143 678.357 440.500 L 680 438.857 680 399.629 L 680 360.400 681.200 359.200 L 682.400 358 711.545 358 L 740.690 358 742.285 359.762 L 743.879 361.524 744.070 399.664 L 744.261 437.804 744.880 438.752 L 745.500 439.701 747.684 440.850 L 749.869 442 765.434 442 L 781 442 783 440 L 785 438 784.965 406.250 L 784.930 374.500 783.605 368.327 L 782.280 362.155 779.890 359.268 L 777.500 356.382 773.500 353.784 L 769.500 351.186 764.500 350.538 L 759.500 349.891 757.350 349.451 L 755.200 349.012 754.100 345.857 L 753 342.702 753 336.374 L 753 330.046 755.462 328.433 L 757.925 326.819 764.675 325.279 L 771.425 323.740 774.585 321.668 L 777.745 319.597 780.351 315.477 L 782.958 311.357 783.959 304.429 L 784.960 297.500 784.980 278.441 L 785 259.382 783.583 257.441 L 782.165 255.500 765.773 255.185 L 749.382 254.870 746.941 256.848 L 744.500 258.825 744.500 286.307 L 744.500 313.789 742.595 315.894 L 740.690 318 711.545 318 L 682.400 318 681.200 316.800 L 680 315.600 680 253.023 L 680 190.445 678.443 188.223 L 676.887 186 660.098 186 L 643.310 186 641.656 187.827  M 524.802 256.044 L 518.104 256.825 514.103 259.210 L 510.102 261.596 507.166 265.292 L 504.229 268.987 503.561 273.743 L 502.892 278.500 501.866 281.758 L 500.840 285.015 498.838 286.087 L 496.836 287.158 487.668 286.985 L 478.500 286.812 476.321 286.906 L 474.143 287 472.571 288.571 L 471 290.143 471.070 347.821 L 471.140 405.500 471.871 416.500 L 472.603 427.500 475.293 431.537 L 477.984 435.574 483.742 438.537 L 489.500 441.500 552.165 441.500 L 614.831 441.500 615.665 440.665 L 616.500 439.830 616.500 422.068 L 616.500 404.306 615.128 402.653 L 613.755 401 564.312 401 L 514.869 401 512.934 399.965 L 511 398.930 511 348.965 L 511 299 513 297 L 515 295 564.378 295 L 613.755 295 614.901 293.619 L 616.047 292.238 615.774 274.385 L 615.500 256.532 611.500 255.824 L 607.500 255.115 569.500 255.189 L 531.500 255.263 524.802 256.044  M 327.424 256.915 L 324.349 257.676 320.188 260.014 L 316.027 262.353 313.364 266.197 L 310.700 270.041 309.965 278.270 L 309.230 286.500 309.754 290 L 310.278 293.500 311.261 294.750 L 312.245 296 355.400 296 L 398.555 296 400.777 297.557 L 403 299.113 403 312.485 L 403 325.857 401.429 327.429 L 399.857 329 349.679 329.063 L 299.500 329.126 292.522 331.851 L 285.544 334.576 282.403 338.694 L 279.262 342.812 277.980 349.607 L 276.698 356.402 277.336 374.451 L 277.974 392.500 278.877 395.610 L 279.780 398.720 281.640 400.949 L 283.500 403.178 287.734 406.126 L 291.967 409.073 298.524 409.863 L 305.081 410.652 306.503 412.076 L 307.924 413.500 309.460 420.806 L 310.996 428.112 314.136 432.020 L 317.277 435.928 321.388 438.040 L 325.500 440.153 338 441.139 L 350.500 442.125 364.500 441.464 L 378.500 440.804 379.750 439.779 L 381 438.755 381 421.434 L 381 404.113 378.777 402.557 L 376.555 401 348.712 401 L 320.869 401 318.934 399.965 L 317 398.930 317 384.940 L 317 370.950 319.565 369.975 L 322.130 369 360 369 L 397.870 369 400.435 369.975 L 403 370.950 403 404.853 L 403 438.755 404.574 440.062 L 406.148 441.368 421.324 441.426 L 436.500 441.485 439.131 440.753 L 441.761 440.022 442.332 437.837 L 442.904 435.653 442.947 380.076 L 442.991 324.500 442.037 313.114 L 441.084 301.729 438.316 297.734 L 435.547 293.739 431.607 291.252 L 427.667 288.765 421.584 287.981 L 415.500 287.196 413.788 286.506 L 412.076 285.815 411.560 284.158 L 411.044 282.500 410.103 275.789 L 409.162 269.079 406.546 265.649 L 403.930 262.219 399.715 259.360 L 395.500 256.500 363 256.327 L 330.500 256.154 327.424 256.915  M 628 522.688 L 622.072 529.862 617.627 545.500 616 553.855 609.725 558 600.500 561.781 583.534 572.433 577.984 591.384 583.069 591.615 588.516 590 600.817 585.190 602.815 594.500 598.504 605.884 597.782 609.268 594.022 620.290 590.246 630.500 587.077 642.432 583.158 654.500 577.461 672.075 575.912 678.500 571.342 692 568.281 699.500 561.524 711.977 550.011 716.262 544.712 723.724 545.950 731 615.067 729.964 620.100 721.516 615.784 716.579 600.078 714.849 594.545 709.143 599 691.938 601.827 683.500 622.500 677.113 642.276 670.208 656.067 661.500 673.262 643.431 682.009 630.500 686.470 620.500 693.344 601.500 690.140 559.234 677.630 545.147 657.728 542.878 647.500 544.500 650.092 530.311 651.471 522.500 628 522.688 M 167.253 543.570 L 149.616 550.327 133 564.090 123.446 574.500 115.250 586.863 112 594.343 107.046 603.500 99.691 628.500 101.965 656 108.958 669.500 120.552 677.135 150.500 679.460 163.418 672.495 177.906 658.832 189 636.320 186.600 630 174.690 632.947 163.112 646.658 146.211 652 131.733 646.543 127.551 635.232 128.169 621.489 142.690 616.507 163.251 612 170.390 610.114 179.500 605.902 189.484 599.602 201.758 588.128 207.979 574.321 208.144 558.500 204.302 551.015 195.969 544.818 178 542.100 167.253 543.570 M 245.619 543.579 L 233.434 549.971 222.211 563.500 212 581.445 213.959 586.463 224.667 589.223 237.571 571.611 242 571 238 582.619 233.956 593.500 230.022 599.638 223.756 614.500 217.953 627.198 216 633.530 211.243 648.259 211.500 666.672 222.644 677.614 244.500 679.339 263.681 666.159 274 654.977 275.909 651.583 280.243 644 283 645.841 280.022 657.500 282.132 668.393 292.856 679 309.283 676.400 326.841 661.233 334.376 647.500 339.056 635.927 328.313 632.022 316.954 645.500 311.470 650 310.626 638.500 315.512 625.500 320.631 607.500 324 597.943 326.266 590.500 333.022 568 337.912 553.500 336.418 545.607 316.222 545 309.903 553.607 304.208 569.500 301.006 576.400 295.828 588.500 293.348 593.276 286.500 606.852 275.739 625.217 263.696 641.500 247.167 652.704 239 650.930 241.417 639.816 248.357 623.500 253 612.426 256 608.755 259.101 599.079 266.290 583.500 270.977 570 273 557.254 267.286 546.765 256.500 542.029 245.619 543.579 M 383.739 543.549 L 371.500 549.414 361.957 560.500 350 581.006 352.904 587.284 362.949 589 368.405 579.531 375.757 570.732 377.978 575.809 374.223 587.720 371.462 599.500 367.119 613.500 361.193 633.500 354.947 654.500 350.795 668.867 352.151 675.711 372.923 675.877 378 671.131 380 663.500 382 657.657 395.288 628.500 399.879 619.500 412.568 597.943 414 594.608 424.369 580.500 432.952 572.716 436 576.538 443.788 584 454.562 582.091 463.116 575.248 465.973 561.500 463.349 550.973 452.950 543.579 444.808 542 427.306 551.585 415.500 566.279 411.164 571.448 407.213 577.500 407.859 571.587 410.062 557.942 405.179 547.512 393.500 542.030 383.739 543.549 M 512 543.929 L 495.500 550.281 484.150 560 471.500 575.500 468.104 580.500 459.913 595.500 453.372 616 450.562 647.500 457.893 664.181 468.160 674.349 493 679.443 516.890 675 523.896 671.294 540.500 656.406 546.012 649 551.878 639.500 556.874 630 561.822 618.500 567.103 596.903 568.187 588.500 564.223 564.504 552.201 549.500 537.247 543.610 519.500 542.234 512 543.929 M 766.270 543.566 L 750.500 549.214 733.857 561.793 715.842 583.269 708.028 597.500 705.784 605.500 702 614.121 698 630.494 699.360 651.215 702.971 663.500 717.344 676.236 749.500 679.496 770.500 664.584 787.184 640.500 786.461 631.348 775.290 630 763.803 644.513 756.500 649.086 745.088 651.985 730.302 647.093 726 629.598 729.005 618.090 744 616.121 766.761 611.254 778.444 605.419 795.472 593.593 802.626 584.409 807.233 572.500 806.297 558.096 795.471 545.071 776.685 542.100 766.270 543.566 M 521.264 561.258 L 508.222 570.958 498.818 585.500 493.898 595.500 488.752 607.500 482.854 623.500 479.538 648.749 481.112 658.112 491.303 662 506.500 655.500 514.334 645.698 527 622.670 528.422 619.065 531.122 610.319 536.488 593.666 539 566.971 529.500 559.505 521.264 561.258 M 165.634 562.677 L 155.500 568.505 146.126 579 136 595.252 137.057 600 147.500 597.791 164.304 588.170 175.309 574.844 174.762 564.217 167.500 562.162 165.634 562.677 M 763.500 563.074 L 750.500 571.558 738.002 589.640 734 595.118 735.047 599.529 746.500 597.706 754.185 594 763.500 588.161 771.832 578.615 774 564.070 768.316 562.090 763.500 563.074 M 638.474 569.399 L 634.088 579.500 632.629 585.527 628.943 598.364 625.647 606.512 620.919 622.500 617.347 634 613.192 644.500 612.276 658.705 630.146 655.975 646.688 642.441 660.851 619.500 664.174 606.513 665.443 583.500 656.399 570.320 640.191 566.779 638.474 569.399" stroke="none" fill="white" fill-rule="evenodd"/>
</svg>
